<svg xmlns="http://www.w3.org/2000/svg" viewBox="0 0 800 1000" width="800" height="1000" role="img" aria-label="RMDS — hand-painted Madhubani suit">
  <defs>
    <linearGradient id="g-rangreza-madhubani-design-suit" x1="0" y1="0" x2="1" y2="1">
      <stop offset="0" stop-color="#356b4d" stop-opacity="0.17"/>
      <stop offset="0.55" stop-color="#356b4d" stop-opacity="0.05"/>
      <stop offset="1" stop-color="#356b4d" stop-opacity="0"/>
    </linearGradient>
    <filter id="f-rangreza-madhubani-design-suit"><feTurbulence type="fractalNoise" baseFrequency="0.9" numOctaves="2" stitchTiles="stitch"/><feColorMatrix type="saturate" values="0"/></filter>
  </defs>

  <rect width="800" height="1000" fill="#fbf6ec"/>
  <rect width="800" height="1000" fill="url(#g-rangreza-madhubani-design-suit)"/>
  <rect width="800" height="1000" filter="url(#f-rangreza-madhubani-design-suit)" opacity="0.04"/>

  <!-- frame -->
  <rect x="34" y="34" width="732" height="932" rx="26" fill="none" stroke="#356b4d" stroke-width="3" stroke-opacity="0.45"/>
  <rect x="50" y="50" width="700" height="900" rx="18" fill="none" stroke="#356b4d" stroke-width="1.4" stroke-opacity="0.3" stroke-dasharray="2 7"/>

  <!-- corner fish -->
  <g opacity="0.32">
    <g transform="translate(64 64)"><g fill="none" stroke="#356b4d" stroke-width="4" stroke-linecap="round" stroke-linejoin="round">
      <path d="M18 50 C30 30 60 30 74 50 C60 70 30 70 18 50 Z"/>
      <path d="M74 50 L92 38 L85 50 L92 62 Z"/>
      <path d="M40 32 C50 24 60 26 64 33"/>
      <path d="M40 68 C50 76 60 74 64 67"/>
      <path d="M44 36 C48 50 48 50 44 64"/>
      <path d="M54 40 C58 50 58 50 54 60"/>
      <path d="M64 43 C67 50 67 50 64 57"/>
      <circle cx="33" cy="46" r="2.4" fill="#356b4d" stroke="none"/></g></g>
    <g transform="translate(736 64) scale(-1 1)"><g fill="none" stroke="#356b4d" stroke-width="4" stroke-linecap="round" stroke-linejoin="round">
      <path d="M18 50 C30 30 60 30 74 50 C60 70 30 70 18 50 Z"/>
      <path d="M74 50 L92 38 L85 50 L92 62 Z"/>
      <path d="M40 32 C50 24 60 26 64 33"/>
      <path d="M40 68 C50 76 60 74 64 67"/>
      <path d="M44 36 C48 50 48 50 44 64"/>
      <path d="M54 40 C58 50 58 50 54 60"/>
      <path d="M64 43 C67 50 67 50 64 57"/>
      <circle cx="33" cy="46" r="2.4" fill="#356b4d" stroke="none"/></g></g>
  </g>

  <g stroke="#356b4d" stroke-opacity="0.55" stroke-width="1.3" fill="#356b4d" fill-opacity="0.5"><line x1="96" y1="132" x2="704" y2="132" stroke-opacity="0.4"/><path d="M91 132 Q 96 121 101 132 Z" stroke="none"/><circle cx="119.38461538461539" cy="137" r="1.7" stroke="none"/><path d="M137.76923076923077 132 Q 142.76923076923077 121 147.76923076923077 132 Z" stroke="none"/><circle cx="166.15384615384616" cy="137" r="1.7" stroke="none"/><path d="M184.53846153846155 132 Q 189.53846153846155 121 194.53846153846155 132 Z" stroke="none"/><circle cx="212.92307692307693" cy="137" r="1.7" stroke="none"/><path d="M231.3076923076923 132 Q 236.3076923076923 121 241.3076923076923 132 Z" stroke="none"/><circle cx="259.6923076923077" cy="137" r="1.7" stroke="none"/><path d="M278.0769230769231 132 Q 283.0769230769231 121 288.0769230769231 132 Z" stroke="none"/><circle cx="306.46153846153845" cy="137" r="1.7" stroke="none"/><path d="M324.8461538461538 132 Q 329.8461538461538 121 334.8461538461538 132 Z" stroke="none"/><circle cx="353.23076923076917" cy="137" r="1.7" stroke="none"/><path d="M371.6153846153846 132 Q 376.6153846153846 121 381.6153846153846 132 Z" stroke="none"/><circle cx="399.99999999999994" cy="137" r="1.7" stroke="none"/><path d="M418.38461538461536 132 Q 423.38461538461536 121 428.38461538461536 132 Z" stroke="none"/><circle cx="446.7692307692307" cy="137" r="1.7" stroke="none"/><path d="M465.15384615384613 132 Q 470.15384615384613 121 475.15384615384613 132 Z" stroke="none"/><circle cx="493.5384615384615" cy="137" r="1.7" stroke="none"/><path d="M511.9230769230769 132 Q 516.9230769230769 121 521.9230769230769 132 Z" stroke="none"/><circle cx="540.3076923076923" cy="137" r="1.7" stroke="none"/><path d="M558.6923076923076 132 Q 563.6923076923076 121 568.6923076923076 132 Z" stroke="none"/><circle cx="587.076923076923" cy="137" r="1.7" stroke="none"/><path d="M605.4615384615385 132 Q 610.4615384615385 121 615.4615384615385 132 Z" stroke="none"/><circle cx="633.8461538461538" cy="137" r="1.7" stroke="none"/><path d="M652.2307692307692 132 Q 657.2307692307692 121 662.2307692307692 132 Z" stroke="none"/><circle cx="680.6153846153845" cy="137" r="1.7" stroke="none"/><path d="M699 132 Q 704 121 709 132 Z" stroke="none"/><circle cx="727.3846153846154" cy="137" r="1.7" stroke="none"/></g>

  <!-- RMDS · suit -->
  <path d="M322 274 L244 336 L262 386 L328 344 Z" fill="#356b4d" fill-opacity="0.12" stroke="#3a2a1c" stroke-width="3" stroke-linejoin="round"/><path d="M478 274 L556 336 L538 386 L472 344 Z" fill="#356b4d" fill-opacity="0.12" stroke="#3a2a1c" stroke-width="3" stroke-linejoin="round"/><path d="M322 266 Q400 250 478 266 L522 742 Q400 768 278 742 Z" fill="#356b4d" fill-opacity="0.13" stroke="#3a2a1c" stroke-width="3.2" stroke-linejoin="round"/><path d="M374 264 Q400 306 426 264" fill="#f4ead7" stroke="#3a2a1c" stroke-width="2.6"/><g><rect x="330" y="310" width="140" height="42" fill="#d29a2e" fill-opacity="0.2"/><line x1="330" y1="310" x2="470" y2="310" stroke="#356b4d" stroke-width="1.4" stroke-opacity="0.55"/><line x1="330" y1="352" x2="470" y2="352" stroke="#356b4d" stroke-width="1.4" stroke-opacity="0.55"/><circle cx="330" cy="331" r="1.8" fill="#356b4d" fill-opacity="0.6"/><circle cx="347.5" cy="331" r="1.8" fill="#356b4d" fill-opacity="0.6"/><circle cx="365" cy="331" r="1.8" fill="#356b4d" fill-opacity="0.6"/><circle cx="382.5" cy="331" r="1.8" fill="#356b4d" fill-opacity="0.6"/><circle cx="400" cy="331" r="1.8" fill="#356b4d" fill-opacity="0.6"/><circle cx="417.5" cy="331" r="1.8" fill="#356b4d" fill-opacity="0.6"/><circle cx="435" cy="331" r="1.8" fill="#356b4d" fill-opacity="0.6"/><circle cx="452.5" cy="331" r="1.8" fill="#356b4d" fill-opacity="0.6"/><circle cx="470" cy="331" r="1.8" fill="#356b4d" fill-opacity="0.6"/></g><path d="M282 296 C 300 622 470 702 552 736" fill="none" stroke="#d29a2e" stroke-width="14" stroke-opacity="0.32" stroke-linecap="round"/><g transform="translate(348 364) scale(1.04)"><g fill="none" stroke="#356b4d" stroke-width="2.692307692307692" stroke-linecap="round" stroke-linejoin="round"><ellipse cx="44" cy="64" rx="13" ry="9"/><path d="M52 58 C58 48 58 38 54 32"/><circle cx="55" cy="29" r="4"/><path d="M58 27 L64 25"/><path d="M55 25 L55 20 M52 25 L50 21 M58 25 L60 21"/><path d="M46 56 Q 31.0 48.0 14.0 47.8"/><circle cx="14.0" cy="47.8" r="3.4"/><circle cx="14.0" cy="47.8" r="1.2" fill="#356b4d" stroke="none"/><path d="M46 56 Q 36.5 41.9 21.6 33.8"/><circle cx="21.6" cy="33.8" r="3.4"/><circle cx="21.6" cy="33.8" r="1.2" fill="#356b4d" stroke="none"/><path d="M46 56 Q 44.2 39.1 34.8 25.0"/><circle cx="34.8" cy="25.0" r="3.4"/><circle cx="34.8" cy="25.0" r="1.2" fill="#356b4d" stroke="none"/><path d="M46 56 Q 52.3 40.2 50.6 23.3"/><circle cx="50.6" cy="23.3" r="3.4"/><circle cx="50.6" cy="23.3" r="1.2" fill="#356b4d" stroke="none"/><path d="M46 56 Q 58.9 45.0 65.4 29.3"/><circle cx="65.4" cy="29.3" r="3.4"/><circle cx="65.4" cy="29.3" r="1.2" fill="#356b4d" stroke="none"/></g></g><g><rect x="284" y="712" width="232" height="30" fill="#356b4d" fill-opacity="0.2"/><line x1="284" y1="712" x2="516" y2="712" stroke="#d29a2e" stroke-width="1.4" stroke-opacity="0.55"/><line x1="284" y1="742" x2="516" y2="742" stroke="#d29a2e" stroke-width="1.4" stroke-opacity="0.55"/><circle cx="284" cy="727" r="1.8" fill="#d29a2e" fill-opacity="0.6"/><circle cx="301.84615384615387" cy="727" r="1.8" fill="#d29a2e" fill-opacity="0.6"/><circle cx="319.6923076923077" cy="727" r="1.8" fill="#d29a2e" fill-opacity="0.6"/><circle cx="337.53846153846155" cy="727" r="1.8" fill="#d29a2e" fill-opacity="0.6"/><circle cx="355.38461538461536" cy="727" r="1.8" fill="#d29a2e" fill-opacity="0.6"/><circle cx="373.2307692307692" cy="727" r="1.8" fill="#d29a2e" fill-opacity="0.6"/><circle cx="391.0769230769231" cy="727" r="1.8" fill="#d29a2e" fill-opacity="0.6"/><circle cx="408.9230769230769" cy="727" r="1.8" fill="#d29a2e" fill-opacity="0.6"/><circle cx="426.7692307692308" cy="727" r="1.8" fill="#d29a2e" fill-opacity="0.6"/><circle cx="444.61538461538464" cy="727" r="1.8" fill="#d29a2e" fill-opacity="0.6"/><circle cx="462.46153846153845" cy="727" r="1.8" fill="#d29a2e" fill-opacity="0.6"/><circle cx="480.30769230769226" cy="727" r="1.8" fill="#d29a2e" fill-opacity="0.6"/><circle cx="498.1538461538462" cy="727" r="1.8" fill="#d29a2e" fill-opacity="0.6"/><circle cx="516" cy="727" r="1.8" fill="#d29a2e" fill-opacity="0.6"/></g>

  <g stroke="#356b4d" stroke-opacity="0.55" stroke-width="1.3" fill="#356b4d" fill-opacity="0.5"><line x1="96" y1="846" x2="704" y2="846" stroke-opacity="0.4"/><path d="M91 846 Q 96 835 101 846 Z" stroke="none"/><circle cx="119.38461538461539" cy="851" r="1.7" stroke="none"/><path d="M137.76923076923077 846 Q 142.76923076923077 835 147.76923076923077 846 Z" stroke="none"/><circle cx="166.15384615384616" cy="851" r="1.7" stroke="none"/><path d="M184.53846153846155 846 Q 189.53846153846155 835 194.53846153846155 846 Z" stroke="none"/><circle cx="212.92307692307693" cy="851" r="1.7" stroke="none"/><path d="M231.3076923076923 846 Q 236.3076923076923 835 241.3076923076923 846 Z" stroke="none"/><circle cx="259.6923076923077" cy="851" r="1.7" stroke="none"/><path d="M278.0769230769231 846 Q 283.0769230769231 835 288.0769230769231 846 Z" stroke="none"/><circle cx="306.46153846153845" cy="851" r="1.7" stroke="none"/><path d="M324.8461538461538 846 Q 329.8461538461538 835 334.8461538461538 846 Z" stroke="none"/><circle cx="353.23076923076917" cy="851" r="1.7" stroke="none"/><path d="M371.6153846153846 846 Q 376.6153846153846 835 381.6153846153846 846 Z" stroke="none"/><circle cx="399.99999999999994" cy="851" r="1.7" stroke="none"/><path d="M418.38461538461536 846 Q 423.38461538461536 835 428.38461538461536 846 Z" stroke="none"/><circle cx="446.7692307692307" cy="851" r="1.7" stroke="none"/><path d="M465.15384615384613 846 Q 470.15384615384613 835 475.15384615384613 846 Z" stroke="none"/><circle cx="493.5384615384615" cy="851" r="1.7" stroke="none"/><path d="M511.9230769230769 846 Q 516.9230769230769 835 521.9230769230769 846 Z" stroke="none"/><circle cx="540.3076923076923" cy="851" r="1.7" stroke="none"/><path d="M558.6923076923076 846 Q 563.6923076923076 835 568.6923076923076 846 Z" stroke="none"/><circle cx="587.076923076923" cy="851" r="1.7" stroke="none"/><path d="M605.4615384615385 846 Q 610.4615384615385 835 615.4615384615385 846 Z" stroke="none"/><circle cx="633.8461538461538" cy="851" r="1.7" stroke="none"/><path d="M652.2307692307692 846 Q 657.2307692307692 835 662.2307692307692 846 Z" stroke="none"/><circle cx="680.6153846153845" cy="851" r="1.7" stroke="none"/><path d="M699 846 Q 704 835 709 846 Z" stroke="none"/><circle cx="727.3846153846154" cy="851" r="1.7" stroke="none"/></g>
  <text x="400" y="812" text-anchor="middle" font-family="'Helvetica Neue', Arial, sans-serif" font-size="15" fill="#4e3b2b" letter-spacing="6">BHARNI</text>

  <!-- seal -->
  <g>
    <circle cx="400" cy="906" r="30" fill="#fbf6ec" stroke="#356b4d" stroke-width="2" stroke-opacity="0.75"/>
    <circle cx="400" cy="906" r="25" fill="none" stroke="#356b4d" stroke-width="1" stroke-opacity="0.45"/>
    <text x="400" y="912" text-anchor="middle" font-family="Georgia, 'Times New Roman', serif" font-size="16" font-weight="600" fill="#356b4d" letter-spacing="1.5">RMDS</text>
  </g>
</svg>
